<svg width="108.801" height="75.001" viewBox="0 0 108.801 75.001" xmlns="http://www.w3.org/2000/svg"><g id="svgGroup" stroke-linecap="round" fill-rule="evenodd" font-size="9pt" stroke="#ffffff" stroke-width="0" fill="#58B09C" style="stroke:#ffffff;stroke-width:0;fill:#58B09C"><path d="M 13.2 74 L 0 74 L 0 1 L 17.5 1 L 36.4 57.5 Q 36.1 53.8 35.7 48.95 Q 35.3 44.1 35.05 39.25 Q 34.8 34.4 34.8 31 L 34.8 1 L 48 1 L 48 74 L 30.5 74 L 11.8 17.5 Q 12.1 20.7 12.4 25.1 Q 12.7 29.5 12.95 34 Q 13.2 38.5 13.2 42 L 13.2 74 Z M 60 53 L 60 22 Q 60 15.3 63.05 10.4 Q 66.1 5.5 71.6 2.75 Q 77.1 0 84.5 0 Q 91.8 0 97.25 2.75 Q 102.7 5.5 105.75 10.4 Q 108.8 15.3 108.8 22 L 93.8 22 Q 93.8 17.6 91.35 15.3 Q 88.9 13 84.4 13 Q 79.9 13 77.45 15.3 Q 75 17.6 75 22 L 75 53 Q 75 57.3 77.45 59.65 Q 79.9 62 84.4 62 Q 88.9 62 91.35 59.65 Q 93.8 57.3 93.8 53 L 108.8 53 Q 108.8 59.6 105.75 64.55 Q 102.7 69.5 97.25 72.25 Q 91.8 75 84.5 75 Q 77.1 75 71.6 72.25 Q 66.1 69.5 63.05 64.55 Q 60 59.6 60 53 Z"/></g></svg>